<?xml version="1.0" standalone="no"?>
<!DOCTYPE svg PUBLIC "-//W3C//DTD SVG 20010904//EN"
 "http://www.w3.org/TR/2001/REC-SVG-20010904/DTD/svg10.dtd">
<svg version="1.0" xmlns="http://www.w3.org/2000/svg"
 width="1024.000000pt" height="1024.000000pt" viewBox="0 0 1024.000000 1024.000000"
 preserveAspectRatio="xMidYMid meet">
<metadata>
Created by potrace 1.14, written by Peter Selinger 2001-2017
</metadata>
<g transform="translate(0.000000,1024.000000) scale(0.100000,-0.100000)"
fill="#000000" stroke="none">
<path d="M4905 7886 c-168 -28 -382 -102 -510 -177 l-70 -40 -160 -4 c-330 -8
-594 -84 -805 -233 -94 -66 -224 -195 -287 -284 -40 -57 -61 -78 -77 -78 -28
0 -160 -36 -211 -57 -164 -69 -295 -212 -349 -379 -15 -46 -24 -56 -94 -104
-99 -69 -276 -246 -331 -330 -208 -321 -240 -754 -82 -1110 173 -393 561 -666
1164 -820 l147 -37 26 -49 c202 -381 657 -581 1409 -619 110 -6 405 7 455 19
15 4 37 -21 181 -209 202 -265 383 -581 490 -855 39 -101 61 -135 99 -155 82
-42 180 19 180 111 0 38 -30 191 -105 543 -14 63 -25 120 -25 127 0 8 22 4 67
-13 300 -109 771 -41 1195 173 203 102 404 279 471 413 33 65 37 83 37 147 0
64 2 74 18 74 60 1 240 33 312 55 222 70 340 213 340 412 0 75 -27 235 -51
297 -19 51 -19 58 -4 217 20 216 20 521 -1 656 -42 286 -160 534 -349 733 -26
27 -46 59 -50 80 -11 53 -53 176 -87 255 -134 310 -375 514 -703 595 -68 18
-83 26 -110 58 -233 284 -491 445 -815 506 -114 22 -337 31 -443 18 -82 -11
-94 -10 -173 13 -46 13 -123 32 -171 41 -119 21 -422 28 -528 10z m720 -177
c-26 -38 -53 -73 -59 -77 -6 -4 -24 -23 -40 -42 -71 -87 -169 -181 -180 -170
-7 7 -6 10 2 10 7 0 17 12 22 26 6 14 20 28 31 31 16 5 18 8 7 15 -10 7 -9 8
4 6 9 -2 17 2 18 7 1 16 72 85 82 79 4 -3 8 2 8 11 0 9 4 13 10 10 6 -3 7 1 4
9 -4 9 1 18 10 22 22 8 20 25 -1 18 -17 -5 -17 -5 0 6 9 6 21 9 26 6 5 -3 14
1 20 8 9 11 9 16 0 22 -8 4 -9 3 -5 -4 4 -7 2 -12 -3 -12 -13 0 -13 3 -5 24 5
13 9 14 20 5 12 -10 13 -8 8 7 -4 10 -11 25 -17 32 -6 8 -6 12 1 12 6 0 14 -9
17 -20 9 -28 28 -25 20 3 -5 16 -4 18 4 8 8 -12 12 -10 22 13 7 16 15 23 17
16 2 -6 -17 -43 -43 -81z m285 67 c0 -8 -8 -22 -17 -33 -10 -10 -13 -12 -8 -3
9 13 8 13 -8 1 -9 -8 -15 -16 -13 -19 5 -4 -44 -75 -68 -97 -25 -24 -44 -52
-51 -75 -7 -21 -6 -23 6 -13 10 8 20 9 29 3 12 -8 12 -10 -3 -10 -14 0 -17 -5
-11 -22 12 -39 36 -68 55 -68 11 0 19 -4 19 -9 0 -5 15 -7 33 -4 31 4 31 4 12
-11 -19 -16 -19 -16 9 -10 22 5 27 4 21 -6 -6 -9 -1 -10 16 -5 13 4 21 4 16
-1 -11 -11 46 -33 59 -22 8 5 14 3 18 -7 5 -14 16 -15 63 -10 54 6 56 5 33 -9
l-25 -14 25 0 c14 0 45 -4 70 -10 l45 -11 -60 5 c-112 10 -268 54 -365 104
-79 40 -100 107 -59 185 29 53 70 101 83 97 6 -2 8 0 3 4 -4 4 9 25 30 46 42
43 43 43 43 24z m-1385 -120 c-9 -13 -13 -31 -9 -41 5 -13 4 -16 -4 -11 -8 5
-12 -3 -12 -23 0 -17 -4 -31 -9 -31 -10 0 -34 -54 -36 -80 -2 -29 -16 -60 -27
-60 -5 0 -8 -7 -4 -15 3 -9 0 -15 -9 -15 -9 0 -23 -16 -32 -35 -9 -19 -20 -35
-24 -35 -4 0 -5 -9 -2 -20 3 -13 -1 -22 -11 -26 -10 -4 -14 -13 -11 -24 3 -10
1 -21 -5 -25 -6 -4 -8 -15 -5 -26 4 -10 2 -26 -3 -35 -7 -13 -9 -6 -7 24 1 23
-2 39 -7 36 -5 -3 -7 -12 -4 -19 5 -15 -14 -77 -28 -86 -5 -4 -9 -26 -9 -50 0
-24 -5 -49 -12 -55 -11 -11 -12 -76 -4 -311 1 -14 6 -20 12 -16 6 4 8 0 4 -10
-3 -8 1 -21 9 -28 10 -8 13 -21 9 -41 -5 -20 -2 -35 10 -48 9 -10 15 -28 12
-42 -4 -21 -4 -21 -6 4 0 15 -5 29 -11 33 -5 3 -7 -15 -5 -47 l5 -53 -14 55
c-55 208 -60 512 -13 650 15 41 36 87 47 102 11 15 20 30 20 34 0 3 22 43 50
89 63 104 103 198 126 299 18 78 19 79 26 42 6 -27 4 -43 -7 -60z m-211 -17
c-3 -6 -7 -29 -9 -52 -3 -48 -44 -139 -58 -130 -6 3 -7 1 -3 -5 4 -6 -20 -44
-53 -84 -32 -40 -70 -96 -84 -123 -29 -58 -84 -94 -176 -115 -66 -15 -237 -9
-254 10 -10 10 -8 12 5 7 37 -13 198 -20 198 -9 0 6 -7 9 -15 6 -8 -4 -15 -1
-15 5 0 13 15 14 58 2 22 -7 30 -6 26 1 -4 6 1 8 12 5 11 -4 30 0 44 8 l25 15
-30 -4 c-16 -2 -24 -1 -17 1 6 2 12 8 12 12 0 4 14 6 31 3 22 -3 36 1 50 16
10 12 19 25 18 29 -3 19 2 34 9 29 5 -3 16 8 25 23 15 25 15 30 2 41 -11 9
-12 16 -2 30 7 13 15 16 23 9 7 -6 16 -4 24 6 7 8 19 15 26 15 8 0 11 6 7 17
-4 9 -2 14 3 11 10 -7 36 17 28 25 -8 7 35 87 46 87 6 0 10 8 10 18 0 15 -2
15 -11 2 -9 -12 -10 -12 -5 3 3 10 6 23 6 28 0 5 5 8 11 7 6 -2 14 3 17 11 3
8 0 11 -7 7 -6 -4 -11 -5 -11 -1 0 11 25 45 33 45 4 0 5 -5 1 -11z m1206 -9
c0 -5 -2 -10 -4 -10 -2 0 -12 -3 -22 -7 -16 -6 -17 -5 -4 10 17 19 30 22 30 7z
m-1043 -172 c-3 -7 -5 -2 -5 12 0 14 2 19 5 13 2 -7 2 -19 0 -25z m1179 -112
c35 -34 34 -49 -4 -53 -19 -2 -21 -1 -10 11 7 8 18 11 23 8 6 -3 -3 8 -20 24
-19 18 -33 25 -38 19 -5 -6 -7 -3 -4 7 3 9 -2 22 -11 30 -11 9 -14 9 -8 1 5
-9 2 -11 -8 -7 -9 3 -16 10 -16 15 0 5 -4 9 -10 9 -5 0 -9 -4 -7 -8 1 -5 -13
-23 -31 -40 -22 -21 -30 -36 -26 -49 5 -14 4 -15 -4 -3 -6 8 -8 19 -5 25 4 5
2 6 -3 2 -5 -5 -9 -14 -9 -20 -1 -7 -7 -11 -14 -9 -8 2 -11 -3 -8 -10 6 -16
-27 -60 -38 -50 -4 4 -4 -4 -1 -18 5 -17 4 -21 -2 -11 -12 17 -24 -1 -15 -25
5 -13 3 -15 -7 -9 -10 6 -11 2 -6 -19 4 -18 2 -26 -6 -26 -15 0 -16 -10 -21
-155 -2 -60 0 -121 5 -135 6 -14 10 -43 10 -65 0 -30 2 -35 8 -20 6 15 9 8 9
-25 1 -69 3 -84 14 -97 6 -9 6 -13 -1 -13 -21 0 -59 175 -68 310 -12 195 38
315 187 454 l71 66 21 -41 c11 -23 35 -55 53 -73z m1253 -11 c91 -272 48 -389
-184 -500 l-73 -35 -46 20 c-168 72 -361 45 -616 -86 -87 -45 -127 -61 -135
-53 -7 7 -5 9 5 5 8 -3 26 3 40 14 19 16 20 19 5 13 -18 -6 -18 -5 3 17 12 13
22 27 22 32 0 4 7 8 16 8 13 0 11 -4 -7 -18 -15 -13 -19 -21 -11 -26 7 -4 12
-3 12 2 0 6 11 13 25 16 14 4 25 11 25 16 0 5 7 6 17 3 11 -4 14 -3 9 5 -7 12
-6 13 32 17 13 1 34 12 47 25 14 13 31 20 42 16 10 -2 32 2 48 9 25 12 26 14
5 9 -14 -4 -32 -9 -40 -12 -12 -4 -12 -2 -3 8 6 7 44 15 85 18 53 4 67 7 53
14 -15 6 -12 7 13 3 17 -2 32 0 32 5 0 6 15 10 33 10 24 0 28 -3 17 -10 -12
-8 -10 -10 8 -10 13 0 20 4 17 10 -4 6 6 10 24 10 37 0 62 -9 55 -21 -3 -5 7
-4 21 1 33 13 57 12 30 -1 -15 -7 -8 -8 25 -5 27 3 37 2 26 -3 -18 -7 -16 -9
14 -19 38 -14 77 -14 105 -2 15 7 9 8 -20 5 -37 -4 -38 -4 -10 5 16 5 41 7 55
5 14 -3 19 -2 12 1 -8 4 1 13 24 25 20 10 42 15 48 12 6 -4 5 1 -3 11 -11 13
-12 19 -2 29 10 9 11 8 6 -5 -5 -13 -2 -18 9 -18 9 0 16 6 16 14 0 8 9 17 19
21 13 4 18 12 14 22 -4 9 -2 14 3 11 11 -7 35 17 27 26 -4 3 -2 6 4 6 6 0 9 9
6 20 -3 12 0 20 7 20 8 0 9 10 5 30 -4 19 -3 30 4 30 6 0 11 15 10 33 -1 30
-1 31 -9 7 -7 -21 -8 -22 -9 -5 -1 11 -4 31 -7 45 -4 20 -3 22 5 10 9 -13 11
-13 11 2 0 9 -3 24 -7 34 -6 16 -7 16 -15 -2 -6 -14 -7 -10 -5 15 4 38 -17
112 -26 90 -3 -8 -5 2 -4 21 0 19 -3 46 -7 60 -6 17 -5 22 2 15 6 -5 24 -50
41 -100z m-1559 65 c0 -4 -9 -15 -21 -26 -38 -34 -107 -149 -123 -206 -41
-142 -4 -294 119 -494 20 -32 22 -41 10 -41 -8 0 -15 9 -15 19 0 10 -5 18 -10
18 -6 0 -15 10 -20 23 -5 12 -9 16 -9 9 -1 -7 -6 -10 -12 -6 -8 5 -8 8 0 14
13 8 4 40 -11 40 -6 0 -7 -7 -4 -16 3 -9 2 -12 -5 -9 -6 4 -8 14 -5 22 4 9 2
21 -4 28 -6 7 -10 17 -9 21 2 5 -2 20 -8 34 -6 14 -15 36 -21 50 -8 18 -11 20
-11 8 -1 -10 -6 -18 -11 -18 -7 0 -7 7 0 20 12 23 3 93 -11 84 -5 -3 -4 7 1
21 12 32 14 56 2 38 -4 -6 -7 19 -8 55 0 47 2 59 8 42 7 -22 7 -21 5 7 -2 18
1 29 6 26 6 -4 8 9 4 33 -3 21 -3 31 -1 21 7 -21 24 -13 24 12 0 9 9 27 20 39
21 22 27 37 10 27 -5 -3 -7 0 -4 9 3 9 12 12 22 9 14 -6 14 -4 -1 17 -24 34
-21 47 4 19 l20 -24 -6 30 c-3 18 -2 25 3 17 7 -10 13 -9 29 5 11 10 18 24 16
31 -3 7 1 10 11 6 9 -3 16 -9 16 -14z m1510 -12 c0 -19 -2 -20 -10 -8 -13 19
-13 30 0 30 6 0 10 -10 10 -22z m-800 -24 c0 -2 -7 -4 -15 -4 -8 0 -15 4 -15
10 0 5 7 7 15 4 8 -4 15 -8 15 -10z m-1653 -26 c-3 -8 -6 -5 -6 6 -1 11 2 17
5 13 3 -3 4 -12 1 -19z m1778 2 c3 -6 -1 -7 -9 -4 -18 7 -21 14 -7 14 6 0 13
-4 16 -10z m-560 -10 c3 -5 1 -10 -4 -10 -6 0 -11 5 -11 10 0 6 2 10 4 10 3 0
8 -4 11 -10z m-1222 -23 c3 -7 -3 -13 -13 -13 -10 0 -16 6 -13 13 3 7 9 13 13
13 4 0 10 -6 13 -13z m1343 -19 c60 -26 222 -36 328 -20 55 9 74 8 100 -3 l31
-15 -32 6 c-29 5 -32 3 -27 -13 6 -15 4 -16 -7 -5 -8 7 -39 11 -83 11 -62 -2
-66 -3 -31 -9 32 -6 24 -7 -42 -9 -52 0 -83 3 -83 9 0 7 -6 8 -16 2 -11 -6
-33 -4 -62 4 -25 8 -57 14 -71 14 -19 0 -22 3 -12 9 10 7 5 11 -18 16 -17 3
-31 11 -31 16 0 12 1 12 56 -13z m457 -5 c-7 -2 -19 -2 -25 0 -7 3 -2 5 12 5
14 0 19 -2 13 -5z m-428 -43 c-19 -8 -19 -9 -1 -9 11 -1 17 -3 14 -6 -3 -4
-18 -3 -34 1 -25 6 -26 8 -9 15 28 11 55 10 30 -1z m-2591 -72 c-3 -5 -1 -8 4
-8 5 0 9 -29 8 -64 -1 -37 -5 -59 -9 -52 -5 6 -6 -5 -4 -26 3 -20 2 -38 -3
-40 -4 -2 -10 -25 -13 -53 -3 -27 -9 -65 -13 -84 -5 -25 -4 -32 4 -27 17 10
15 -3 -3 -20 -19 -20 -21 -144 -2 -145 10 0 10 -2 0 -6 -7 -2 -12 -14 -12 -26
1 -17 2 -18 6 -4 7 27 24 20 19 -8 -3 -13 -7 -29 -11 -35 -3 -5 -1 -10 5 -10
7 0 9 -8 5 -20 -4 -13 0 -23 13 -31 12 -7 18 -19 14 -27 -3 -9 -1 -13 4 -9 6
3 11 -3 11 -14 1 -10 9 -26 17 -35 9 -9 21 -25 27 -37 6 -12 -6 -4 -25 18 -66
73 -105 178 -106 282 0 29 11 121 25 205 14 84 25 197 26 253 1 75 3 91 9 65
5 -19 6 -38 4 -42z m3947 17 c14 9 1 -176 -15 -222 -8 -21 -22 -56 -32 -78
-10 -22 -17 -47 -16 -55 1 -10 0 -11 -4 -2 -6 13 -25 17 -23 5 2 -15 -14 -53
-22 -53 -5 0 -5 7 -2 17 4 11 3 14 -5 9 -7 -4 -12 -13 -12 -21 0 -14 -27 -29
-48 -26 -7 1 -11 -4 -10 -11 2 -8 -6 -13 -18 -12 -16 0 -20 -4 -16 -15 4 -10
1 -13 -11 -8 -9 3 -17 2 -17 -4 0 -6 -5 -7 -10 -4 -17 10 -30 -38 -15 -55 10
-13 35 -74 35 -87 0 -2 -4 -2 -9 1 -5 4 -7 -3 -4 -14 3 -11 10 -20 16 -20 6 0
7 -17 4 -45 -4 -27 -3 -45 3 -45 13 0 13 -147 0 -155 -5 -3 -10 -33 -10 -66 0
-35 -4 -59 -11 -59 -6 0 -7 -5 -2 -12 13 -21 12 -37 -3 -49 -11 -9 -13 5 -8
92 2 57 7 116 9 131 8 49 -15 239 -36 297 -11 31 -22 63 -24 71 -3 10 19 26
73 53 86 42 167 113 197 173 15 31 20 67 24 179 3 77 7 128 9 112 2 -15 8 -25
13 -22z m-1238 28 c-7 -2 -19 -2 -25 0 -7 3 -2 5 12 5 14 0 19 -2 13 -5z
m-2128 -53 c3 -5 -1 -10 -10 -10 -9 0 -13 5 -10 10 3 6 8 10 10 10 2 0 7 -4
10 -10z m1625 -40 c0 -5 -5 -10 -11 -10 -5 0 -7 5 -4 10 3 6 8 10 11 10 2 0 4
-4 4 -10z m-1664 -42 c64 -31 76 -33 174 -33 81 0 112 4 137 17 l31 18 7 -63
c9 -81 27 -163 59 -260 33 -102 103 -282 127 -328 23 -44 23 -50 4 -43 -8 4
-13 9 -10 13 4 8 -33 91 -41 91 -3 0 -2 -12 2 -27 6 -27 5 -27 -9 -8 -9 12
-14 37 -12 62 1 24 -1 40 -6 37 -12 -7 -39 63 -32 83 4 11 3 14 -5 9 -8 -5
-10 -2 -6 9 4 8 2 21 -4 28 -5 6 -13 27 -17 45 -3 17 -11 32 -16 32 -5 0 -9
11 -9 24 0 13 -3 38 -6 56 -5 23 -9 28 -16 18 -7 -9 -8 -5 -4 14 3 14 2 37 -3
50 -9 21 -10 21 -11 3 -1 -11 -4 -15 -6 -8 -3 7 -1 21 5 32 8 15 7 23 -4 35
-8 8 -15 27 -15 41 0 22 -3 26 -17 20 -10 -4 -28 -10 -41 -13 -13 -2 -26 -11
-29 -18 -3 -8 -9 -14 -15 -14 -5 0 -6 5 -2 11 5 8 -1 10 -21 7 -15 -3 -42 -2
-59 3 -17 5 -49 11 -70 13 -22 3 -42 9 -45 14 -3 6 -25 20 -48 32 -38 19 -52
30 -39 30 2 0 35 -15 72 -32z m1638 -13 c-4 -8 -8 -15 -10 -15 -2 0 -4 7 -4
15 0 8 4 15 10 15 5 0 7 -7 4 -15z m-2314 -131 c0 -39 -7 -117 -15 -173 -28
-186 16 -294 150 -369 11 -6 14 -12 7 -12 -7 0 -10 -5 -7 -11 4 -6 -2 -5 -13
2 -12 7 -18 17 -15 22 3 4 -12 6 -34 3 -22 -3 -29 -2 -16 2 17 5 20 10 12 22
-8 11 -12 12 -16 2 -7 -17 -23 -5 -16 13 3 11 1 13 -10 9 -8 -3 -18 -1 -22 5
-3 6 -1 11 4 11 6 0 11 5 11 11 0 5 -4 7 -10 4 -5 -3 -12 6 -16 20 -3 13 -10
22 -15 19 -5 -3 -9 1 -10 8 -2 32 -11 73 -19 88 -6 11 -5 31 1 51 5 19 10 68
11 109 0 41 4 77 8 80 4 3 5 39 1 80 -3 41 -4 89 -2 105 l4 30 13 -30 c7 -16
13 -62 14 -101z m967 59 c-3 -10 -5 -4 -5 12 0 17 2 24 5 18 2 -7 2 -21 0 -30z
m-1150 -65 c-3 -7 -5 -2 -5 12 0 14 2 19 5 13 2 -7 2 -19 0 -25z m-44 -13 c-3
-9 -8 -14 -10 -11 -3 3 -2 9 2 15 9 16 15 13 8 -4z m4287 -31 c0 -8 -5 -12
-10 -9 -6 4 -8 11 -5 16 9 14 15 11 15 -7z m-853 -10 c-3 -3 -12 -4 -19 -1 -8
3 -5 6 6 6 11 1 17 -2 13 -5z m383 -24 c0 -5 -4 -10 -10 -10 -5 0 -10 5 -10
10 0 6 5 10 10 10 6 0 10 -4 10 -10z m-3460 -10 c0 -5 -4 -10 -10 -10 -5 0
-10 5 -10 10 0 6 5 10 10 10 6 0 10 -4 10 -10z m2738 -54 c-7 -8 -15 -12 -17
-11 -5 6 10 25 20 25 5 0 4 -6 -3 -14z m1799 -8 c-3 -8 -6 -5 -6 6 -1 11 2 17
5 13 3 -3 4 -12 1 -19z m-3450 -50 c-3 -7 -5 -2 -5 12 0 14 2 19 5 13 2 -7 2
-19 0 -25z m-1480 0 c-3 -8 -6 -5 -6 6 -1 11 2 17 5 13 3 -3 4 -12 1 -19z
m210 0 c-3 -8 -6 -5 -6 6 -1 11 2 17 5 13 3 -3 4 -12 1 -19z m180 0 c-3 -8 -6
-5 -6 6 -1 11 2 17 5 13 3 -3 4 -12 1 -19z m3348 -10 c81 -42 137 -111 185
-229 29 -68 32 -119 8 -119 -5 0 -7 9 -3 19 8 25 -4 73 -16 65 -6 -3 -7 5 -3
20 4 17 2 26 -6 26 -6 0 -8 -4 -5 -10 3 -5 1 -10 -4 -10 -6 0 -11 13 -11 29 0
17 -4 33 -10 36 -5 3 -10 15 -10 26 0 11 -7 19 -17 19 -9 0 -13 3 -10 7 4 3
-2 12 -13 20 -10 7 -18 19 -16 26 1 6 1 9 -1 5 -9 -15 -25 -8 -19 8 3 9 2 12
-5 8 -6 -3 -24 8 -41 25 -27 27 -36 31 -67 25 -24 -3 -31 -2 -23 4 10 7 5 11
-19 16 -18 3 -34 4 -37 1 -3 -3 0 -5 6 -5 7 0 12 -4 12 -8 0 -5 -26 -5 -57 -1
-37 5 -62 4 -70 -3 -7 -6 -23 -8 -35 -4 -34 8 -103 -4 -86 -16 8 -6 1 -7 -21
-3 -26 6 -32 4 -26 -6 6 -9 3 -11 -8 -6 -9 3 -19 1 -23 -4 -3 -6 -17 -8 -31
-4 -17 4 -23 2 -18 -6 5 -7 1 -9 -12 -5 -11 3 -41 -1 -69 -9 -55 -16 -77 -19
-54 -6 19 11 225 69 310 87 39 8 107 12 170 10 90 -2 112 -6 155 -28z m-1115
-28 c0 -5 -2 -10 -4 -10 -3 0 -8 5 -11 10 -3 6 -1 10 4 10 6 0 11 -4 11 -10z
m1464 -16 c3 -8 2 -12 -4 -9 -6 3 -10 10 -10 16 0 14 7 11 14 -7z m-2744 -10
c0 -8 -5 -12 -10 -9 -6 4 -8 11 -5 16 9 14 15 11 15 -7z m-1343 -16 c-3 -8 -6
-5 -6 6 -1 11 2 17 5 13 3 -3 4 -12 1 -19z m2501 -3 c-3 -3 -9 2 -12 12 -6 14
-5 15 5 6 7 -7 10 -15 7 -18z m659 -11 c-3 -3 -12 -4 -19 -1 -8 3 -5 6 6 6 11
1 17 -2 13 -5z m-1635 -176 c-7 -7 -12 -8 -12 -2 0 14 12 26 19 19 2 -3 -1
-11 -7 -17z m-15 -40 c-3 -8 -6 -5 -6 6 -1 11 2 17 5 13 3 -3 4 -12 1 -19z
m-1227 -19 c0 -6 -4 -7 -10 -4 -5 3 -10 11 -10 16 0 6 5 7 10 4 6 -3 10 -11
10 -16z m-266 -5 c3 -8 2 -12 -4 -9 -6 3 -10 10 -10 16 0 14 7 11 14 -7z
m3991 -162 c20 -74 34 -136 31 -139 -3 -3 -8 6 -12 21 -3 14 -11 23 -17 19 -5
-3 -7 -1 -4 5 9 14 -3 43 -15 36 -5 -3 -8 5 -7 18 1 12 1 39 0 58 -1 32 -3 34
-16 16 -12 -16 -13 -14 -10 26 2 24 0 50 -5 58 -4 7 -6 20 -3 28 9 22 17 3 58
-146z m1068 141 c-7 -2 -21 -2 -30 0 -10 3 -4 5 12 5 17 0 24 -2 18 -5z m50 0
c-7 -2 -19 -2 -25 0 -7 3 -2 5 12 5 14 0 19 -2 13 -5z m-4693 -18 c0 -8 -2
-15 -4 -15 -2 0 -6 7 -10 15 -3 8 -1 15 4 15 6 0 10 -7 10 -15z m4653 4 l62
-1 -60 -9 c-32 -5 -73 -13 -90 -19 -51 -17 -106 -70 -131 -126 -23 -53 -48
-161 -46 -201 1 -12 -3 -25 -9 -28 -6 -4 -8 11 -6 44 2 28 0 48 -4 45 -5 -3
-9 -1 -9 5 0 5 4 11 9 13 5 2 12 25 15 52 5 46 16 76 16 45 1 -8 7 -3 15 11 8
14 12 38 10 55 -4 22 -3 25 3 11 5 -12 11 -16 15 -9 8 13 -2 45 -17 55 -7 5
-6 8 2 8 8 0 16 -9 19 -20 8 -31 29 -21 31 14 1 11 58 36 83 36 11 0 19 5 19
11 0 6 -7 8 -16 5 -9 -3 -12 -2 -9 5 4 6 14 8 22 5 8 -3 42 -7 76 -7z m-142
-17 c-7 -2 -18 1 -23 6 -8 8 -4 9 13 5 13 -4 18 -8 10 -11z m-104 -134 c-3 -7
-5 -2 -5 12 0 14 2 19 5 13 2 -7 2 -19 0 -25z m368 22 c17 -4 22 -8 13 -9 -10
0 -18 -5 -18 -10 0 -5 -16 -9 -35 -9 -19 0 -32 4 -29 9 9 15 -24 10 -40 -7 -9
-8 -20 -12 -26 -9 -5 3 -10 0 -10 -7 0 -9 -2 -10 -8 -1 -5 8 -11 8 -24 -1 -10
-7 -15 -15 -12 -18 3 -4 0 -9 -7 -14 -8 -4 -10 -3 -5 4 16 27 -11 9 -46 -29
-37 -41 -53 -74 -23 -49 13 11 14 10 9 -3 -7 -18 -34 -31 -34 -16 0 6 -5 7
-10 4 -7 -4 -7 -12 0 -25 13 -24 13 -40 0 -40 -5 0 -7 7 -4 15 5 11 2 13 -10
9 -9 -3 -16 -15 -16 -26 0 -10 4 -16 10 -13 6 3 7 -1 3 -10 -4 -13 -8 -14 -14
-4 -6 10 -11 7 -18 -11 -5 -14 -10 -18 -10 -10 -1 26 38 102 80 156 78 102
186 149 284 124z m-4088 -22 c-3 -8 -6 -5 -6 6 -1 11 2 17 5 13 3 -3 4 -12 1
-19z m2082 -28 c0 -9 -4 -8 -9 5 -5 11 -9 27 -9 35 0 9 4 8 9 -5 5 -11 9 -27
9 -35z m-2189 10 c0 -5 -4 -10 -10 -10 -5 0 -10 5 -10 10 0 6 5 10 10 10 6 0
10 -4 10 -10z m60 6 c0 -3 -6 -11 -13 -18 -7 -7 -33 -53 -57 -103 -44 -88 -45
-92 -44 -185 0 -86 5 -109 47 -235 47 -140 71 -244 59 -256 -4 -4 -36 -16 -71
-27 -46 -16 -68 -19 -82 -11 -25 13 -24 22 1 14 25 -8 62 3 55 16 -4 5 -1 9 4
9 6 0 11 -4 11 -10 0 -13 26 -2 29 13 1 7 4 28 6 47 5 48 6 49 16 15 6 -23 7
-19 4 20 -6 54 -24 86 -26 44 -1 -17 -3 -19 -6 -6 -3 10 1 24 7 32 6 8 9 19 5
25 -5 8 -11 6 -19 -6 -11 -14 -12 -9 -10 30 2 27 -1 44 -7 41 -5 -4 -9 8 -9
24 0 17 -4 31 -10 31 -5 0 -10 8 -10 18 0 10 -4 22 -10 28 -5 5 -12 32 -15 59
l-4 50 9 -44 c15 -68 21 -72 14 -11 -3 30 -12 62 -20 71 -18 20 -18 35 0 20
12 -10 15 -4 18 35 3 45 -7 71 -15 37 -3 -14 -4 -13 -3 2 1 11 7 19 14 18 15
-4 15 7 2 44 -9 26 -9 27 5 9 14 -19 15 -18 22 15 4 19 6 37 5 42 -1 4 4 7 12
7 9 0 13 8 10 23 -2 12 -2 16 2 10 3 -7 10 -13 15 -13 5 0 4 10 -2 23 -11 20
-11 21 4 8 14 -11 17 -11 17 -1 0 8 7 22 17 32 16 18 23 22 23 14z m2154 -38
c-5 -30 -4 -39 4 -34 7 4 12 1 12 -9 0 -9 -5 -13 -11 -9 -8 5 -8 1 0 -14 6
-11 11 -29 10 -39 -1 -13 -3 -11 -9 7 l-8 25 -1 -28 c-1 -16 -6 -38 -13 -50
-12 -21 -13 -26 -16 -56 -1 -7 -8 -11 -16 -8 -16 6 -40 -16 -29 -27 4 -4 -1
-4 -11 0 -14 5 -17 4 -11 -5 4 -8 2 -17 -6 -23 -10 -7 -5 -8 14 -3 17 3 26 2
23 -4 -3 -5 0 -12 6 -14 7 -3 4 -6 -6 -6 -15 -1 -17 -4 -8 -13 9 -9 17 -7 33
8 13 10 19 13 15 7 -13 -23 53 -54 104 -49 31 3 37 3 20 -3 l-25 -8 28 -12
c36 -14 44 -14 50 2 2 6 8 8 13 4 5 -4 2 -12 -6 -17 -12 -8 -9 -10 10 -11 14
0 20 -3 13 -5 -16 -7 -333 88 -333 99 0 16 103 117 113 110 5 -3 7 -1 4 4 -4
6 0 24 8 39 9 16 15 49 14 74 -2 44 8 110 17 110 2 0 1 -19 -2 -42z m-57 -10
c-6 -56 -27 -100 -43 -94 -8 3 -16 0 -20 -6 -5 -7 -2 -8 7 -4 8 5 -11 -16 -42
-45 -31 -30 -64 -69 -73 -87 -13 -25 -22 -32 -34 -27 -96 37 -265 45 -330 15
-49 -22 -147 -112 -199 -182 -19 -27 -39 -45 -45 -42 -5 3 -8 0 -6 -7 3 -15
-77 -132 -111 -163 -19 -17 -20 -17 -30 2 -6 12 -9 27 -8 34 2 7 2 9 -1 5 -4
-7 -88 68 -181 163 -24 25 -55 68 -68 97 -28 61 -42 130 -25 119 7 -4 12 -18
12 -30 0 -33 26 -81 34 -64 3 7 4 1 3 -14 -3 -21 4 -33 29 -54 20 -17 30 -33
26 -42 -4 -11 -1 -13 8 -7 9 5 11 4 6 -3 -9 -16 7 -15 22 0 9 9 12 9 12 0 0
-7 -4 -12 -10 -12 -5 0 -10 -5 -10 -10 0 -6 8 -10 17 -8 9 2 22 -7 28 -19 7
-13 15 -20 18 -16 4 3 7 -1 7 -11 0 -11 5 -15 13 -10 6 4 9 4 5 -1 -11 -11 12
-36 25 -28 5 3 8 2 5 -3 -3 -5 0 -15 8 -22 8 -7 14 -9 14 -5 0 4 11 -5 25 -22
13 -16 24 -25 25 -18 0 6 -4 15 -10 18 -13 8 -13 25 0 25 5 0 9 -3 9 -7 -3
-20 2 -23 16 -9 18 17 20 30 4 20 -8 -5 -9 -2 -1 12 6 11 7 27 1 43 -9 25 -8
25 6 6 9 -11 13 -25 11 -32 -8 -20 4 -15 25 10 10 12 18 30 19 39 0 9 5 20 10
23 6 4 8 16 5 28 -5 19 -5 20 5 5 6 -10 16 -18 22 -18 9 0 9 3 0 12 -16 16
-15 29 1 23 6 -3 19 10 28 28 9 17 21 32 27 32 5 0 14 3 18 8 4 4 2 7 -5 7 -7
0 -9 5 -5 11 4 8 9 7 15 -2 6 -10 11 -6 18 14 6 15 22 32 36 37 31 12 34 34 3
25 -18 -5 -20 -4 -8 4 8 6 23 8 34 5 12 -4 16 -2 12 5 -4 6 -2 9 7 6 7 -3 31
2 53 11 38 17 38 17 14 25 -23 6 -23 7 -3 8 12 1 25 -3 28 -9 9 -14 52 -12 59
3 4 9 8 9 11 1 5 -9 14 -9 37 0 24 8 32 8 35 -2 3 -6 9 -9 15 -6 11 7 85 -14
106 -29 9 -7 11 -6 7 5 -5 12 -1 14 17 11 19 -4 26 3 41 37 12 29 22 40 32 36
8 -3 15 -1 15 4 0 6 -4 10 -10 10 -5 0 -10 5 -10 11 0 8 5 7 15 -1 9 -7 19
-10 22 -6 4 4 1 12 -7 17 -11 8 -9 9 9 4 14 -5 21 -3 17 3 -7 12 28 45 38 35
4 -5 7 -3 6 2 -1 6 -1 24 0 40 2 30 2 30 10 5 8 -24 8 -24 9 7 1 32 10 63 18
63 2 0 2 -19 0 -42z m-2087 2 c-6 -11 -7 -20 -3 -20 4 0 8 -16 9 -35 1 -25 -2
-32 -11 -25 -8 6 -10 -1 -7 -28 3 -20 10 -40 16 -44 6 -4 11 -27 11 -52 0 -24
4 -48 9 -53 5 -4 6 -3 3 3 -4 6 0 20 8 30 15 18 15 18 10 -6 -4 -14 -1 -38 4
-53 7 -18 7 -26 1 -22 -6 3 -10 -3 -10 -14 0 -11 8 -25 18 -30 12 -8 13 -10 3
-11 -10 0 -8 -6 8 -21 17 -16 20 -24 10 -35 -9 -11 -7 -14 10 -14 13 0 21 -7
22 -17 1 -42 8 -73 23 -101 9 -17 16 -46 16 -64 0 -26 3 -30 11 -18 8 11 9 7
6 -18 -3 -31 -2 -33 19 -29 13 2 21 0 18 -4 -2 -4 19 -6 48 -3 38 3 47 2 33
-5 -19 -9 -19 -10 2 -10 12 -1 23 3 25 9 2 5 17 11 33 13 17 3 23 2 15 0 -36
-12 -27 -21 30 -32 34 -7 69 -15 78 -18 10 -4 13 -2 8 5 -5 8 1 8 24 1 17 -6
27 -16 23 -22 -4 -7 0 -8 11 -4 11 5 15 3 10 -5 -5 -7 0 -9 14 -6 12 4 22 2
22 -4 0 -5 10 -6 23 -3 16 4 18 4 8 -3 -10 -8 -6 -11 17 -17 18 -3 36 -4 41
-1 5 4 11 1 13 -5 2 -6 24 -12 48 -13 104 -5 106 -6 90 -17 -11 -7 7 -8 60 -4
90 8 150 22 150 36 0 6 4 8 9 5 5 -3 12 1 15 9 3 9 -1 18 -10 22 -10 4 -12 8
-5 13 8 4 5 14 -9 30 -11 13 -20 27 -20 32 0 5 -4 7 -9 4 -8 -5 -30 15 -46 43
-5 9 -4 12 3 7 7 -4 12 -2 12 3 0 6 -9 11 -20 11 -11 0 -20 7 -20 15 0 18 -17
20 -23 3 -7 -21 -20 -1 -22 36 -2 19 -13 56 -26 83 -12 26 -21 58 -20 69 1 12
-5 28 -13 36 -16 16 -11 57 8 70 7 5 7 22 0 57 -6 28 -7 51 -3 51 12 0 22 -65
16 -103 -7 -49 9 -143 33 -188 11 -22 18 -45 14 -50 -3 -5 0 -8 8 -7 7 2 13
-4 13 -12 0 -8 -6 -14 -12 -13 -7 2 -13 -2 -13 -7 0 -13 17 -13 25 0 9 14 77
-52 121 -116 43 -63 44 -106 2 -137 -63 -47 -296 -25 -468 44 -114 46 -223 69
-327 69 l-92 0 -6 38 c-13 73 -37 146 -90 268 -76 173 -89 222 -82 310 5 65
19 114 33 114 2 0 0 -9 -6 -20z m3980 10 c0 -5 -5 -10 -11 -10 -5 0 -7 5 -4
10 3 6 8 10 11 10 2 0 4 -4 4 -10z m-86 -45 c-4 -8 -10 -15 -15 -15 -4 0 -6 7
-3 15 4 8 10 15 15 15 4 0 6 -7 3 -15z m363 -87 c-3 -7 -5 -2 -5 12 0 14 2 19
5 13 2 -7 2 -19 0 -25z m-3389 -79 c-3 -8 -7 -3 -11 10 -4 17 -3 21 5 13 5 -5
8 -16 6 -23z m1035 11 c-3 -11 -10 -23 -16 -27 -5 -3 -8 -2 -5 3 3 5 8 17 11
27 9 24 16 22 10 -3z m-263 0 c0 -5 -10 -10 -22 -9 -22 0 -22 1 -3 9 11 5 21
9 23 9 1 1 2 -3 2 -9z m-2511 -34 c-3 -3 -11 5 -18 17 -13 21 -12 21 5 5 10
-10 16 -20 13 -22z m2715 15 c4 -5 -3 -7 -14 -4 -23 6 -26 13 -6 13 8 0 17 -4
20 -9z m1591 -202 c-23 -133 -50 -262 -71 -336 -3 -13 -10 -20 -15 -17 -5 3
-6 -1 -3 -9 7 -19 -27 -95 -61 -135 -30 -36 -71 -61 -101 -61 -10 0 -63 -5
-118 -10 -111 -11 -182 -30 -274 -71 -34 -16 -69 -27 -78 -23 -12 5 -12 7 2
18 10 7 25 10 34 8 10 -3 20 3 24 12 4 12 12 14 28 10 16 -5 20 -4 13 3 -5 5
-17 12 -25 15 -8 2 -3 3 11 1 14 -1 31 2 38 9 8 8 11 8 11 -1 0 -7 -5 -12 -12
-12 -6 0 -8 -3 -4 -7 4 -5 13 -1 20 8 14 19 91 55 80 37 -5 -8 -1 -9 10 -5 10
4 50 10 89 14 39 3 82 12 96 20 15 7 49 13 76 13 32 0 45 3 36 9 -9 6 -10 11
-2 15 6 4 11 2 11 -3 0 -19 15 -11 27 14 6 14 10 33 8 43 -1 9 0 11 2 5 8 -24
23 -13 23 16 0 17 5 33 10 36 6 3 10 20 10 36 0 17 4 28 9 24 13 -8 24 30 16
58 -4 15 -3 18 3 9 7 -11 11 -10 16 4 4 10 2 20 -4 24 -7 4 -7 24 -1 61 9 48
10 49 8 12 -2 -25 1 -39 6 -34 5 5 8 30 6 55 -3 25 0 46 5 46 4 0 6 9 3 19 -3
11 1 22 8 25 7 2 15 22 18 43 18 141 32 215 35 186 2 -18 -9 -101 -23 -184z
m-1335 181 c0 -5 -2 -10 -4 -10 -3 0 -8 5 -11 10 -3 6 -1 10 4 10 6 0 11 -4
11 -10z m-1180 -53 c0 -5 -4 -5 -10 -2 -5 3 -10 14 -10 23 0 15 2 15 10 2 5
-8 10 -19 10 -23z m2590 -10 c0 -10 4 -15 10 -12 6 3 8 -18 6 -57 -3 -49 -2
-54 4 -23 l7 40 3 -35 c1 -19 4 -45 5 -57 1 -13 -2 -23 -6 -23 -5 0 -9 -19 -8
-42 0 -36 2 -39 9 -20 12 30 22 28 10 -2 -5 -13 -8 -88 -8 -167 0 -125 2 -141
14 -124 13 17 14 18 14 1 0 -10 -9 -30 -19 -45 -11 -15 -21 -47 -22 -70 -2
-23 -7 -45 -11 -47 -4 -3 -8 -16 -8 -30 0 -13 -5 -24 -11 -24 -6 0 -9 -7 -5
-15 3 -8 0 -15 -5 -15 -7 0 -9 -9 -6 -22 7 -26 -6 -53 -30 -62 -15 -6 -15 -5
1 13 10 11 16 27 12 36 -3 9 0 29 8 44 8 15 22 56 31 91 25 98 20 412 -10 670
-4 33 -3 41 4 30 6 -8 11 -23 11 -33z m-83 -24 c-3 -10 -5 -2 -5 17 0 19 2 27
5 18 2 -10 2 -26 0 -35z m-2467 -23 c0 -5 -2 -10 -4 -10 -3 0 -8 5 -11 10 -3
6 -1 10 4 10 6 0 11 -4 11 -10z m1387 -6 c-3 -3 -12 -4 -19 -1 -8 3 -5 6 6 6
11 1 17 -2 13 -5z m-3103 -20 c3 -8 2 -12 -4 -9 -6 3 -10 10 -10 16 0 14 7 11
14 -7z m2679 -4 c205 -30 415 -52 429 -44 8 4 10 3 5 -2 -11 -11 -257 -14
-257 -3 0 5 -13 6 -30 3 -16 -4 -36 -2 -42 3 -16 13 -105 34 -138 33 -14 -1
-41 1 -60 3 -19 3 -41 0 -49 -6 -10 -9 -16 -7 -26 6 -10 14 -23 17 -70 13 -32
-3 -61 -8 -64 -13 -3 -4 -15 -13 -26 -20 -11 -6 -19 -16 -18 -22 2 -6 -11 -20
-27 -33 -17 -12 -30 -27 -30 -32 0 -6 4 -5 9 3 5 8 11 9 15 3 3 -5 0 -12 -8
-15 -8 -3 -12 -14 -10 -24 3 -11 -4 -30 -16 -44 l-22 -24 16 27 c20 34 20 49
1 42 -8 -4 -13 -10 -10 -14 3 -5 0 -10 -6 -12 -6 -2 -13 -15 -14 -29 -2 -14
-15 -38 -29 -52 -14 -14 -26 -37 -26 -52 0 -14 -5 -25 -11 -25 -5 0 -7 -5 -3
-12 4 -6 3 -8 -3 -5 -6 4 -14 0 -17 -9 -3 -8 -2 -12 4 -9 22 14 8 -14 -15 -29
-14 -9 -25 -22 -25 -28 0 -7 7 -3 15 8 8 10 15 14 15 7 0 -6 -6 -18 -13 -25
-7 -7 -16 -22 -21 -33 -6 -16 -9 -17 -16 -5 -8 12 -10 12 -10 1 0 -7 -11 -24
-24 -36 -26 -24 -25 -37 2 -28 13 4 14 3 3 -5 -7 -5 -18 -16 -23 -23 -8 -11
-9 -10 -4 3 3 10 1 20 -3 23 -10 6 -23 -23 -16 -35 3 -4 -3 -6 -13 -3 -10 2
-24 -3 -31 -11 -11 -13 -11 -16 0 -16 34 -2 -82 -48 -134 -54 -31 -4 -55 -11
-52 -16 2 -4 -22 -7 -54 -6 -33 0 -57 4 -55 8 2 4 -17 10 -43 13 -27 3 -61 9
-78 13 -16 3 -36 5 -44 3 -7 -1 -10 2 -6 8 3 6 4 11 1 11 -2 0 -12 3 -22 7
-11 4 -15 3 -11 -4 5 -8 -3 -8 -28 0 -25 7 -32 13 -23 20 8 5 2 6 -17 3 -23
-5 -27 -4 -15 4 12 9 6 10 -25 6 -26 -4 -33 -3 -20 3 19 8 19 8 -2 15 -13 4
-28 4 -34 0 -6 -3 -15 -1 -20 7 -4 7 -23 13 -41 14 -21 0 -32 5 -31 13 2 7 -8
12 -25 12 -21 0 -24 -2 -12 -11 12 -8 11 -9 -5 -6 -11 2 -19 8 -18 13 2 11 2
11 -114 20 -46 4 -80 10 -78 14 6 9 103 3 193 -11 35 -5 143 -36 240 -69 209
-69 290 -85 381 -75 36 3 76 7 88 8 12 1 20 4 18 6 -2 2 22 20 53 41 32 20 77
61 101 91 24 30 48 53 53 51 5 -1 7 2 3 8 -4 6 6 32 21 58 15 26 45 81 66 122
81 161 131 230 187 260 48 26 145 26 314 0z m-238 -10 c3 -5 -1 -10 -9 -10 -9
0 -16 5 -16 10 0 6 4 10 9 10 6 0 13 -4 16 -10z m162 -16 c-3 -3 -12 -4 -19
-1 -8 3 -5 6 6 6 11 1 17 -2 13 -5z m-222 -22 c-3 -3 -11 0 -18 7 -9 10 -8 11
6 5 10 -3 15 -9 12 -12z m318 11 c-7 -2 -21 -2 -30 0 -10 3 -4 5 12 5 17 0 24
-2 18 -5z m54 -9 c-3 -3 -12 -4 -19 -1 -8 3 -5 6 6 6 11 1 17 -2 13 -5z
m-1137 -75 c0 -5 -4 -9 -10 -9 -5 0 -10 7 -10 16 0 8 5 12 10 9 6 -3 10 -10
10 -16z m410 -13 c0 -11 -19 -15 -25 -6 -3 5 1 10 9 10 9 0 16 -2 16 -4z
m2077 -18 c-3 -8 -6 -5 -6 6 -1 11 2 17 5 13 3 -3 4 -12 1 -19z m-3811 -103
c9 -8 11 -15 6 -15 -5 0 -15 7 -22 15 -7 8 -9 15 -6 15 4 0 14 -7 22 -15z
m4021 -27 c-3 -8 -6 -5 -6 6 -1 11 2 17 5 13 3 -3 4 -12 1 -19z m-3294 -15
c-7 -2 -19 -2 -25 0 -7 3 -2 5 12 5 14 0 19 -2 13 -5z m186 -30 c3 -2 -12 -2
-31 -1 -20 2 -34 6 -31 11 4 6 52 -1 62 -10z m981 -33 c0 -5 -5 -10 -11 -10
-5 0 -7 5 -4 10 3 6 8 10 11 10 2 0 4 -4 4 -10z m-1693 -6 c-3 -3 -12 -4 -19
-1 -8 3 -5 6 6 6 11 1 17 -2 13 -5z m923 -34 c0 -5 -8 -10 -17 -10 -15 0 -16
2 -3 10 19 12 20 12 20 0z m1125 -39 c-34 -67 -58 -167 -53 -216 5 -41 37
-114 92 -207 15 -26 31 -60 36 -77 l8 -30 -241 1 c-191 0 -258 -3 -320 -16
-42 -9 -83 -14 -90 -10 -6 4 -9 4 -5 -1 9 -10 -90 -57 -103 -49 -17 10 -9 24
15 24 14 0 28 5 31 10 3 6 14 10 25 10 23 0 36 30 12 31 -9 0 -12 3 -5 5 7 3
21 0 33 -6 24 -13 93 -3 84 12 -4 7 5 8 26 3 23 -5 30 -4 26 4 -4 6 -2 11 3
11 6 0 11 -4 11 -10 0 -6 9 -6 25 0 14 5 38 7 55 4 19 -4 30 -2 30 5 0 14 176
15 185 1 8 -12 105 -8 105 4 0 6 7 1 16 -10 8 -10 13 -14 10 -8 -3 7 1 25 9
40 18 35 19 48 3 38 -6 -4 -8 -3 -5 3 4 6 0 13 -8 17 -9 3 -12 12 -8 22 4 11
3 15 -5 10 -13 -8 -32 24 -32 56 0 13 -5 30 -11 38 -8 12 -9 10 -4 -7 3 -12 2
-24 -2 -26 -5 -3 -9 13 -10 36 -6 151 -6 185 1 196 5 7 6 15 3 17 -3 3 4 15
15 26 11 11 17 26 14 34 -3 8 1 17 9 20 8 3 17 14 20 25 4 10 10 19 15 19 5 0
-2 -22 -15 -49z m54 -38 c-5 -14 -9 -32 -9 -41 0 -15 2 -15 10 -2 8 13 10 13
10 -2 0 -9 -4 -20 -10 -23 -5 -3 -10 -16 -9 -28 0 -21 1 -21 9 -2 7 16 9 17 9
3 1 -9 -3 -19 -8 -22 -11 -7 -3 -44 12 -53 6 -4 7 -1 2 7 -6 9 -4 11 4 6 7 -5
10 -15 7 -23 -6 -14 19 -61 29 -55 12 6 25 1 25 -9 0 -8 -5 -8 -15 1 -18 15
-20 -1 -3 -18 8 -8 15 -8 24 -1 8 7 14 6 20 -2 4 -8 3 -9 -4 -5 -17 10 -10
-23 11 -54 9 -14 24 -54 33 -90 20 -79 28 -91 19 -27 -5 34 -4 47 5 47 7 0 10
-7 6 -16 -12 -32 3 -59 36 -61 17 -1 38 2 45 8 9 8 13 8 13 0 0 -7 9 -9 23 -6
26 5 73 12 145 21 40 5 52 10 48 21 -5 12 1 13 26 7 27 -5 31 -4 21 7 -10 12
-5 14 28 11 34 -4 41 -1 46 17 3 11 10 21 15 21 5 0 6 -4 3 -10 -3 -5 -2 -10
4 -10 22 0 22 23 1 46 l-23 24 26 -13 c15 -6 27 -15 27 -19 0 -5 4 -8 10 -8 5
0 7 8 4 18 -5 16 -5 16 6 0 9 -15 14 -16 30 -6 10 7 17 15 14 19 -6 10 24 32
34 25 6 -3 15 1 22 9 11 13 10 14 -5 9 -13 -5 -16 -4 -11 5 5 7 15 10 23 7 27
-11 37 6 12 21 -16 10 -18 12 -5 8 11 -3 24 0 29 7 6 9 7 8 3 -4 -3 -12 -1
-15 9 -11 8 3 13 9 10 13 -3 5 5 6 17 2 21 -5 21 -6 4 -16 -10 -6 -52 -35 -92
-64 -153 -111 -377 -182 -570 -182 -63 0 -64 0 -64 28 0 53 -22 103 -84 195
-86 127 -103 201 -74 315 l12 47 7 -34 c4 -19 3 -45 -2 -58z m-102 5 c-3 -8
-6 -5 -6 6 -1 11 2 17 5 13 3 -3 4 -12 1 -19z m2177 -15 c31 -3 62 -23 37 -23
-11 0 -11 -3 -1 -15 7 -9 19 -14 26 -11 7 3 11 0 8 -7 -2 -7 9 -20 26 -30 16
-10 30 -25 30 -33 0 -8 7 -17 15 -20 9 -4 14 -11 13 -18 -4 -20 26 -88 32 -72
3 9 5 -26 5 -77 0 -68 3 -91 13 -89 6 1 11 -4 10 -10 -2 -9 14 -13 57 -12 34
1 51 -2 40 -6 -17 -6 -17 -7 7 -13 14 -4 41 -5 60 -2 23 4 27 3 14 -3 -18 -8
-18 -9 -3 -15 9 -3 24 -4 32 -1 8 4 15 1 15 -6 0 -7 8 -10 18 -8 19 5 45 -15
34 -27 -4 -4 4 -4 17 0 17 5 21 4 16 -5 -9 -14 -27 -10 -120 25 -53 21 -90 28
-150 29 l-80 1 0 100 c0 93 -2 105 -33 167 -25 52 -48 80 -100 123 -36 30 -72
55 -78 55 -6 0 -18 7 -25 17 -13 15 -12 15 11 3 13 -7 38 -15 54 -17z m-21
-78 c65 -85 99 -172 99 -255 0 -93 -22 -141 -85 -186 -29 -21 -78 -59 -109
-87 -31 -27 -62 -46 -67 -42 -7 3 -8 0 -5 -9 7 -18 -4 -20 -24 -7 -11 7 -10 9
3 15 9 3 13 11 9 17 -4 8 0 8 15 0 19 -11 32 1 14 12 -5 2 -2 2 5 1 7 -2 15 3
18 11 4 8 13 15 22 15 12 0 11 5 -7 24 l-22 24 30 -4 c17 -2 33 1 36 6 4 6 10
8 14 5 5 -2 16 4 26 15 10 11 24 20 32 20 14 0 26 9 51 41 9 12 10 24 2 44 -9
23 -8 26 3 17 8 -7 17 -9 20 -5 10 9 9 25 -1 19 -5 -3 -7 18 -5 47 5 68 -9
143 -26 139 -9 -2 -11 3 -7 13 3 9 0 18 -9 21 -7 3 -11 12 -8 20 3 9 0 14 -8
12 -9 -2 -13 4 -11 14 2 10 -6 28 -18 40 -11 12 -20 26 -20 30 0 5 -6 6 -12 2
-7 -4 -10 -4 -6 1 4 4 2 17 -4 29 -14 27 -2 14 55 -59z m-623 55 c0 -5 -4 -10
-10 -10 -5 0 -10 5 -10 10 0 6 5 10 10 10 6 0 10 -4 10 -10z m-2982 -7 c-16
-2 -40 -2 -55 0 -16 2 -3 4 27 4 30 0 43 -2 28 -4z m75 -20 c-7 -2 -19 -2 -25
0 -7 3 -2 5 12 5 14 0 19 -2 13 -5z m3491 -21 c3 -5 -1 -9 -9 -9 -8 0 -12 4
-9 9 3 4 7 8 9 8 2 0 6 -4 9 -8z m-788 -20 c-21 -2 -42 0 -47 5 -4 4 13 6 39
3 l47 -5 -39 -3z m-1801 -32 c3 -6 -1 -7 -9 -4 -18 7 -21 14 -7 14 6 0 13 -4
16 -10z m-1800 -10 c3 -5 1 -10 -4 -10 -6 0 -11 5 -11 10 0 6 2 10 4 10 3 0 8
-4 11 -10z m1409 -49 c19 -7 19 -8 -2 -13 -12 -4 -20 -2 -17 2 3 5 -5 11 -17
13 -19 4 -20 4 -3 5 11 0 29 -3 39 -7z m211 -1 c-11 -5 -27 -9 -35 -9 -9 0 -8
4 5 9 11 5 27 9 35 9 9 0 8 -4 -5 -9z m-858 -52 c-3 -8 -6 -5 -6 6 -1 11 2 17
5 13 3 -3 4 -12 1 -19z m3930 -25 c-3 -10 -5 -4 -5 12 0 17 2 24 5 18 2 -7 2
-21 0 -30z m-697 17 c0 -5 -16 -20 -36 -34 -33 -22 -34 -25 -17 -36 17 -11 17
-11 -2 -5 -24 8 -23 8 -57 6 -20 -1 -28 -6 -28 -18 0 -15 -2 -16 -10 -3 -6 10
-10 11 -10 3 0 -7 -5 -13 -11 -13 -5 0 -7 5 -3 11 5 9 -4 10 -32 5 -21 -4 -40
-12 -42 -17 -5 -12 -32 -12 -32 1 0 6 -23 10 -51 10 -31 0 -48 -4 -44 -10 4
-6 -5 -10 -20 -10 -15 0 -24 4 -20 10 3 6 -3 10 -14 10 -12 0 -21 -3 -21 -7 0
-10 -58 -43 -73 -43 -7 1 4 9 23 20 34 19 35 19 8 20 -15 0 -33 -6 -40 -12
-12 -12 -34 -19 -68 -22 -8 0 -20 -8 -27 -16 -9 -11 -12 -12 -13 -2 0 9 -8 7
-26 -7 -15 -12 -33 -21 -41 -21 -11 0 -11 -4 -3 -21 11 -19 10 -20 -9 -9 -13
6 -21 7 -21 1 0 -5 -9 -13 -20 -16 -11 -4 -18 -11 -15 -16 4 -5 -1 -9 -11 -9
-13 0 -14 -3 -5 -14 10 -12 8 -13 -10 -9 -18 5 -21 3 -16 -12 5 -13 3 -16 -8
-11 -8 3 -14 2 -12 -3 1 -4 -13 -22 -30 -38 -18 -17 -33 -25 -33 -18 0 7 10
20 23 29 l22 17 -23 -11 c-13 -6 -26 -18 -29 -26 -7 -19 15 -44 32 -37 10 3
13 -2 10 -18 -3 -13 0 -26 6 -29 5 -4 12 -24 15 -45 2 -21 8 -43 11 -49 4 -6
6 -22 5 -36 -2 -20 -1 -22 7 -10 9 12 11 9 11 -13 0 -16 -4 -26 -10 -22 -5 3
-12 -7 -15 -22 -17 -83 -23 -82 -18 2 6 99 -12 165 -63 240 -14 21 -24 38 -22
39 2 2 19 13 38 26 19 14 70 55 113 92 137 117 223 145 488 158 151 7 185 11
223 29 24 12 50 29 56 37 14 16 20 18 20 4z m667 -42 c-3 -7 -5 -2 -5 12 0 14
2 19 5 13 2 -7 2 -19 0 -25z m-167 2 c0 -5 -5 -10 -11 -10 -5 0 -7 5 -4 10 3
6 8 10 11 10 2 0 4 -4 4 -10z m-3723 -32 c-3 -8 -6 -5 -6 6 -1 11 2 17 5 13 3
-3 4 -12 1 -19z m1750 -20 c-3 -8 -6 -5 -6 6 -1 11 2 17 5 13 3 -3 4 -12 1
-19z m30 -20 c-3 -8 -6 -5 -6 6 -1 11 2 17 5 13 3 -3 4 -12 1 -19z m2130 -50
c-3 -8 -6 -5 -6 6 -1 11 2 17 5 13 3 -3 4 -12 1 -19z m-1844 -15 c-7 -2 -19
-2 -25 0 -7 3 -2 5 12 5 14 0 19 -2 13 -5z m1637 -19 c0 -8 -5 -12 -10 -9 -6
4 -8 11 -5 16 9 14 15 11 15 -7z m-2673 -40 c-3 -3 -12 -4 -19 -1 -8 3 -5 6 6
6 11 1 17 -2 13 -5z m-947 -79 c0 -5 -5 -3 -10 5 -5 8 -10 20 -10 25 0 6 5 3
10 -5 5 -8 10 -19 10 -25z m784 -3 c3 -5 -14 -22 -37 -39 -57 -39 -107 -102
-151 -188 -23 -45 -35 -60 -33 -44 1 15 7 33 13 40 14 18 28 50 29 69 0 8 6
14 13 13 7 -2 12 4 12 12 0 9 7 18 16 22 13 5 13 8 2 15 -10 7 -9 8 5 4 9 -3
17 -1 17 4 0 5 -8 14 -17 19 -10 6 -13 11 -7 11 5 0 15 -5 22 -12 10 -10 17
-6 10 6 -6 8 35 45 43 40 13 -7 51 15 44 27 -4 5 -2 9 4 9 5 0 12 -4 15 -8z
m591 -62 c84 -12 103 -15 270 -34 196 -24 332 -17 436 19 30 11 40 11 48 1 6
-7 7 -16 3 -20 -4 -4 0 -6 7 -4 19 4 66 -81 86 -157 22 -87 30 -160 17 -151
-7 4 -12 17 -12 29 0 12 -1 32 -1 44 0 13 -4 25 -10 28 -5 4 -9 15 -9 26 0 10
-4 19 -10 19 -5 0 -10 11 -10 25 0 16 -6 25 -15 25 -8 0 -15 5 -15 11 0 6 7 9
15 5 8 -3 15 -1 15 4 0 5 -9 12 -21 15 -15 5 -19 14 -17 33 2 15 -1 27 -7 27
-5 1 -20 6 -33 14 -24 13 -76 7 -99 -11 -7 -6 -24 -7 -38 -4 -15 4 -25 2 -25
-5 0 -7 -13 -9 -40 -4 -27 5 -40 3 -40 -5 0 -8 -27 -10 -89 -8 -53 1 -85 6
-78 11 7 5 -7 6 -32 3 -31 -3 -40 -2 -30 5 10 7 6 9 -16 7 -17 -1 -36 1 -42 5
-7 5 -39 6 -70 4 -34 -3 -44 -2 -23 2 25 4 -7 10 -111 19 -145 14 -291 14
-283 1 2 -4 -22 -7 -54 -6 -41 0 -69 -6 -100 -22 -24 -13 -51 -21 -63 -18 -14
4 -19 2 -16 -8 4 -8 -7 -15 -34 -19 -27 -4 -38 -10 -33 -18 5 -7 2 -9 -9 -5
-21 8 -34 -12 -16 -25 10 -7 8 -8 -8 -3 -25 7 -67 -11 -58 -25 3 -6 -1 -7 -9
-4 -9 3 -16 1 -16 -5 0 -6 6 -11 12 -11 7 0 2 -7 -10 -16 -12 -8 -27 -12 -32
-9 -19 12 -32 -6 -14 -20 16 -11 15 -12 -11 -9 -16 1 -36 -3 -44 -9 -11 -9
-13 -9 -8 0 14 23 158 133 219 166 66 36 174 73 255 87 68 11 246 11 328 0z
m-358 -46 c-3 -3 -12 -4 -19 -1 -8 3 -5 6 6 6 11 1 17 -2 13 -5z m1083 2 c0
-2 -9 -6 -20 -9 -11 -3 -18 -1 -14 4 5 9 34 13 34 5z m1283 -6 c6 0 0 -11 -13
-25 -16 -17 -30 -23 -44 -19 -16 4 -17 3 -7 -4 29 -20 -138 -110 -254 -138
-63 -14 -215 -19 -215 -6 0 4 24 6 52 5 48 -1 50 -1 18 7 -30 7 -26 8 27 7 34
-1 65 1 69 6 4 4 12 7 18 7 6 0 4 -5 -4 -11 -21 -14 54 -1 104 19 34 13 37 17
20 24 -13 5 -9 6 13 2 19 -3 34 -1 39 7 5 8 3 10 -7 4 -11 -6 -12 -5 -2 5 7 7
20 14 30 15 28 3 70 23 79 36 5 9 2 10 -9 6 -10 -3 -17 -4 -17 -2 0 5 57 36
65 35 25 -1 27 3 10 17 -18 14 -18 15 -2 9 10 -3 24 -6 30 -6z m683 -15 c89
-17 110 -29 63 -39 -21 -4 -40 -1 -56 9 -14 9 -33 13 -48 9 -15 -4 -25 -2 -25
5 0 7 -28 11 -80 11 -47 0 -80 -4 -80 -10 0 -5 -11 -10 -25 -10 -15 0 -39 -7
-56 -16 -16 -8 -38 -12 -48 -9 -10 3 -31 1 -46 -5 -24 -9 -26 -12 -14 -28 13
-15 12 -16 -4 -3 -16 13 -20 13 -27 0 -7 -11 -12 -11 -21 -2 -10 10 2 19 57
44 38 18 92 37 119 44 70 18 199 18 291 0z m-1939 -20 c1 -15 0 -15 -3 -3 -3
9 -13 19 -22 22 -12 3 -12 4 3 3 12 -1 21 -10 22 -22z m-1537 -28 c0 -5 -4 -5
-10 -2 -5 3 -10 14 -10 23 0 15 2 15 10 2 5 -8 10 -19 10 -23z m-17 -22 c4 -8
3 -16 -1 -19 -4 -3 -9 4 -9 15 -2 23 3 25 10 4z m3122 5 c3 -5 -1 -10 -10 -10
-9 0 -13 5 -10 10 3 6 8 10 10 10 2 0 7 -4 10 -10z m-99 -31 c3 -6 1 -16 -5
-22 -8 -8 -11 -8 -11 1 0 7 -4 12 -10 12 -5 0 -10 -6 -10 -14 0 -8 -12 -17
-27 -20 -14 -4 -39 -21 -55 -38 -16 -17 -39 -33 -51 -34 -12 -1 -24 -3 -26 -3
-3 -1 4 -8 15 -16 18 -15 18 -15 0 -8 -11 4 -17 2 -13 -3 3 -6 -4 -11 -16 -11
-21 -2 -22 -1 -3 13 23 16 14 19 -15 3 -11 -5 -17 -14 -14 -19 3 -4 -5 -6 -17
-3 -17 3 -19 2 -10 -5 14 -9 11 -11 -63 -37 -17 -6 -18 -5 -5 5 12 10 11 11
-10 6 -14 -3 -32 -6 -40 -7 -8 0 -1 -7 15 -14 18 -9 23 -14 13 -15 -9 0 -28 5
-41 11 -18 8 -32 7 -60 -5 -20 -8 -37 -11 -37 -6 0 4 6 11 13 13 6 3 -12 6
-41 6 -29 1 -51 5 -48 9 3 5 -10 8 -29 7 -18 0 -33 4 -32 10 1 5 -7 10 -18 11
-11 1 -29 2 -40 3 l-20 2 20 8 c18 7 17 9 -10 15 -27 6 -99 46 -83 46 3 0 36
-13 73 -30 151 -68 279 -81 390 -39 53 19 204 109 274 161 27 21 37 22 47 7z
m-2881 -59 c-10 -11 -22 -20 -27 -20 -10 0 24 38 36 39 5 1 1 -8 -9 -19z
m1602 -67 c-3 -10 -5 -4 -5 12 0 17 2 24 5 18 2 -7 2 -21 0 -30z m-1942 7 c3
-6 -1 -7 -9 -4 -18 7 -21 14 -7 14 6 0 13 -4 16 -10z m1842 -62 c-2 -13 -4 -5
-4 17 -1 22 1 32 4 23 2 -10 2 -28 0 -40z m-1540 6 c-3 -3 -12 -4 -19 -1 -8 3
-5 6 6 6 11 1 17 -2 13 -5z m-52 -34 c13 -6 15 -9 5 -9 -8 0 -22 4 -30 9 -18
12 -2 12 25 0z m2385 -10 c18 -12 2 -12 -25 0 -13 6 -15 9 -5 9 8 0 22 -4 30
-9z m65 -20 c-11 -5 -29 -8 -40 -8 -16 0 -15 2 5 8 34 11 60 11 35 0z m-2090
-40 c13 -6 15 -9 5 -9 -8 0 -22 4 -30 9 -18 12 -2 12 25 0z m123 -17 c-10 -2
-26 -2 -35 0 -10 3 -2 5 17 5 19 0 27 -2 18 -5z m49 1 c-3 -3 -12 -4 -19 -1
-8 3 -5 6 6 6 11 1 17 -2 13 -5z m223 -16 c0 -11 -22 -10 -39 1 -10 7 -7 9 12
8 15 -1 27 -5 27 -9z m168 -15 c-15 -2 -42 -2 -60 0 -18 2 -6 4 27 4 33 0 48
-2 33 -4z m530 -10 c-16 -2 -40 -2 -55 0 -16 2 -3 4 27 4 30 0 43 -2 28 -4z
m309 1 c-3 -3 -12 -4 -19 -1 -8 3 -5 6 6 6 11 1 17 -2 13 -5z m266 -1 c-23 -2
-64 -2 -90 0 -26 2 -7 3 42 3 50 0 71 -1 48 -3z m694 -19 c-3 -3 -12 -4 -19
-1 -8 3 -5 6 6 6 11 1 17 -2 13 -5z m96 -1 c-7 -2 -21 -2 -30 0 -10 3 -4 5 12
5 17 0 24 -2 18 -5z m145 -10 c-10 -2 -26 -2 -35 0 -10 3 -2 5 17 5 19 0 27
-2 18 -5z m442 -3 c0 -5 -2 -10 -4 -10 -3 0 -8 5 -11 10 -3 6 -1 10 4 10 6 0
11 -4 11 -10z"/>
<path d="M5795 7650 c-10 -11 -14 -20 -9 -20 5 0 15 9 22 20 7 11 11 20 9 20
-2 0 -12 -9 -22 -20z"/>
<path d="M4310 7241 c0 -5 5 -13 10 -16 6 -3 10 -2 10 4 0 5 -4 13 -10 16 -5
3 -10 2 -10 -4z"/>
<path d="M4265 6620 c3 -5 8 -10 11 -10 2 0 4 5 4 10 0 6 -5 10 -11 10 -5 0
-7 -4 -4 -10z"/>
<path d="M4124 7344 c3 -9 6 -18 6 -20 0 -3 4 -3 10 1 11 7 2 35 -12 35 -6 0
-7 -7 -4 -16z"/>
<path d="M6448 6873 c7 -3 16 -2 19 1 4 3 -2 6 -13 5 -11 0 -14 -3 -6 -6z"/>
<path d="M7020 6819 c0 -5 5 -7 10 -4 6 3 10 8 10 11 0 2 -4 4 -10 4 -5 0 -10
-5 -10 -11z"/>
<path d="M6861 6594 c0 -11 3 -14 6 -6 3 7 2 16 -1 19 -3 4 -6 -2 -5 -13z"/>
<path d="M3033 6925 c0 -22 2 -30 4 -17 2 12 2 30 0 40 -3 9 -5 -1 -4 -23z"/>
<path d="M5880 5869 c0 -5 9 -9 20 -9 11 0 20 2 20 4 0 2 -9 6 -20 9 -11 3
-20 1 -20 -4z"/>
<path d="M5578 5933 c7 -3 16 -2 19 1 4 3 -2 6 -13 5 -11 0 -14 -3 -6 -6z"/>
<path d="M4900 5670 c0 -5 5 -10 11 -10 5 0 7 5 4 10 -3 6 -8 10 -11 10 -2 0
-4 -4 -4 -10z"/>
<path d="M3860 5956 c0 -8 5 -18 10 -21 6 -3 10 1 10 9 0 8 -4 18 -10 21 -5 3
-10 -1 -10 -9z"/>
<path d="M3896 5871 c-4 -7 -5 -15 -2 -18 9 -9 19 4 14 18 -4 11 -6 11 -12 0z"/>
<path d="M4840 5516 c0 -2 8 -10 18 -17 15 -13 16 -12 3 4 -13 16 -21 21 -21
13z"/>
<path d="M7033 5203 c9 -2 25 -2 35 0 9 3 1 5 -18 5 -19 0 -27 -2 -17 -5z"/>
<path d="M6758 5153 c7 -3 16 -2 19 1 4 3 -2 6 -13 5 -11 0 -14 -3 -6 -6z"/>
<path d="M5998 5733 c6 -2 18 -2 25 0 6 3 1 5 -13 5 -14 0 -19 -2 -12 -5z"/>
<path d="M5045 5170 c-3 -6 1 -7 9 -4 18 7 21 14 7 14 -6 0 -13 -4 -16 -10z"/>
<path d="M5700 4865 c0 -5 5 -17 10 -25 5 -8 10 -10 10 -5 0 6 -5 17 -10 25
-5 8 -10 11 -10 5z"/>
<path d="M5443 4833 c9 -2 25 -2 35 0 9 3 1 5 -18 5 -19 0 -27 -2 -17 -5z"/>
<path d="M7695 4739 c-4 -6 -14 -8 -22 -4 -13 4 -14 3 -3 -10 7 -9 13 -14 14
-13 1 2 8 11 15 21 7 9 11 17 8 17 -3 0 -9 -5 -12 -11z"/>
<path d="M5953 4603 c9 -2 23 -2 30 0 6 3 -1 5 -18 5 -16 0 -22 -2 -12 -5z"/>
<path d="M7905 4570 c-3 -5 1 -10 9 -10 9 0 16 5 16 10 0 6 -4 10 -9 10 -6 0
-13 -4 -16 -10z"/>
</g>
</svg>
